<svg xmlns="http://www.w3.org/2000/svg" width="28" height="28" viewBox="0 0 28 28">
  <g id="android" transform="translate(0 0)">
    <g id="Android_1_" transform="translate(0 0)">
      <rect id="Rectangle_19620" data-name="Rectangle 19620" width="28" height="28" fill="none"/>
      <path id="Android-2" data-name="Android" d="M30.83,8.852a1.648,1.648,0,0,0-1.671,1.625v6.955a1.671,1.671,0,0,0,3.341,0V10.477A1.648,1.648,0,0,0,30.83,8.852Zm-21.159,0A1.648,1.648,0,0,0,8,10.477v6.955a1.671,1.671,0,0,0,3.341,0V10.477A1.648,1.648,0,0,0,9.671,8.852Zm2.9,0h-.12V20.774a1.742,1.742,0,0,0,1.764,1.717h1.272a1.527,1.527,0,0,0-.068.451v3.433a1.672,1.672,0,0,0,3.342,0V22.942a1.587,1.587,0,0,0-.068-.451h3.1a1.586,1.586,0,0,0-.066.451v3.433a1.672,1.672,0,0,0,3.342,0V22.942a1.528,1.528,0,0,0-.069-.451h1.274a1.741,1.741,0,0,0,1.762-1.717V8.852ZM24.084,2.344l.311-.458.311-.451L25.4.421a.265.265,0,0,0-.078-.375.279.279,0,0,0-.384.076L23.88,1.664l-.318.464a9.552,9.552,0,0,0-6.624,0l-.316-.464-.313-.456L15.564.122a.285.285,0,0,0-.387-.076A.268.268,0,0,0,15.1.421l.693,1.014.311.451.313.458a6.171,6.171,0,0,0-3.961,5.424H28.044A6.171,6.171,0,0,0,24.084,2.344ZM16.909,5.6a.813.813,0,1,1,.836-.813A.824.824,0,0,1,16.909,5.6Zm6.681,0a.813.813,0,1,1,.836-.813A.824.824,0,0,1,23.59,5.6Z" transform="translate(-6.25 0)" fill="#fff" fill-rule="evenodd"/>
    </g>
  </g>
</svg>
