<svg xmlns="http://www.w3.org/2000/svg" width="24.537" height="28" viewBox="0 0 24.537 28">
  <g id="Face" transform="translate(-160 -150)">
    <path id="Union_11" data-name="Union 11" d="M1.1,24.433A2.674,2.674,0,0,1,4.236,20.1c.347.247,8.017,5.554,16.116.007a2.674,2.674,0,0,1,3.021,4.412A18.847,18.847,0,0,1,12.558,28,21.034,21.034,0,0,1,1.1,24.433ZM19.151,9.8V2.672a2.672,2.672,0,1,1,5.344,0V9.8a2.672,2.672,0,1,1-5.344,0ZM.222,9.8V2.672a2.673,2.673,0,0,1,5.345,0V9.8a2.673,2.673,0,0,1-5.345,0Z" transform="translate(160 150)" fill="#1bfcb6"/>
  </g>
</svg>
