<svg xmlns="http://www.w3.org/2000/svg" width="108.173" height="123.87" viewBox="0 0 108.173 123.87">
  <g id="FaceGreen" transform="translate(-160 -149.572)">
    <rect id="Rectangle_18680" data-name="Rectangle 18680" width="23.561" height="54.976" rx="11.781" transform="translate(160.982 150)" fill="#1bfcb6"/>
    <rect id="Rectangle_18681" data-name="Rectangle 18681" width="24" height="55" rx="12" transform="translate(244.079 149.572)" fill="#1bfcb6"/>
    <g id="Path_34419" data-name="Path 34419" transform="translate(160 236.391)">
      <path id="Path_35007" data-name="Path 35007" d="M-96.729,1639.385c-28.366,0-49.2-14.783-50.5-15.723a11.789,11.789,0,0,1-2.611-16.465,11.785,11.785,0,0,1,16.426-2.637c1.531,1.088,35.344,24.488,71.049.031a11.788,11.788,0,0,1,16.385,3.065,11.788,11.788,0,0,1-3.065,16.385C-65.83,1635.537-82.26,1639.385-96.729,1639.385Z" transform="translate(152.09 -1602.335)" fill="#1bfcb6"/>
    </g>
  </g>
</svg>
