<svg xmlns="http://www.w3.org/2000/svg" width="19.544" height="24" viewBox="0 0 19.544 24">
  <g id="ios" transform="translate(-8.315 -4.372)">
    <path id="Union_40" data-name="Union 40" d="M2.526,20.964C.462,17.984-1.112,12.541,1,8.871A5.873,5.873,0,0,1,5.969,5.86C7.52,5.832,8.983,6.9,9.93,6.9s2.726-1.289,4.6-1.1a5.617,5.617,0,0,1,4.389,2.378,5.433,5.433,0,0,0-2.593,4.572,5.307,5.307,0,0,0,3.221,4.854A13.323,13.323,0,0,1,17.88,21.02c-1,1.464-2.036,2.918-3.67,2.948-1.608.03-2.125-.952-3.964-.952s-2.412.922-3.932.982H6.229C4.694,24,3.515,22.394,2.526,20.964ZM9.741,5.531a5.032,5.032,0,0,1,1.274-3.714A5.377,5.377,0,0,1,14.55,0,5.294,5.294,0,0,1,13.3,3.833,4.55,4.55,0,0,1,9.985,5.541C9.9,5.541,9.822,5.538,9.741,5.531Z" transform="translate(8.315 4.372)" fill="#fff"/>
  </g>
</svg>
