<svg xmlns="http://www.w3.org/2000/svg" width="20.4" height="20.4" viewBox="0 0 20.4 20.4">
  <path id="language" d="M13.995,4A10,10,0,1,0,24,14,9.993,9.993,0,0,0,13.995,4Zm6.925,6H17.97a15.885,15.885,0,0,0-1.38-3.56A8.008,8.008,0,0,1,20.92,10ZM14,6.035A13.848,13.848,0,0,1,15.91,10H12.09A13.848,13.848,0,0,1,14,6.035ZM6.26,16a7.822,7.822,0,0,1,0-4H9.635A16.449,16.449,0,0,0,9.5,14a15.5,15.5,0,0,0,.14,2H6.26Zm.815,2h2.95a16.018,16.018,0,0,0,1.38,3.565A8.017,8.017,0,0,1,7.075,18Zm2.95-8H7.075a8.017,8.017,0,0,1,4.33-3.565A16.018,16.018,0,0,0,10.025,10ZM14,21.965A14.116,14.116,0,0,1,12.09,18h3.82A14.116,14.116,0,0,1,14,21.965ZM16.34,16H11.66a13.9,13.9,0,0,1-.16-2,13.9,13.9,0,0,1,.16-2h4.68a13.9,13.9,0,0,1,.16,2A13.9,13.9,0,0,1,16.34,16Zm.255,5.56A15.978,15.978,0,0,0,17.975,18h2.95a8.044,8.044,0,0,1-4.33,3.56ZM18.36,16a16.444,16.444,0,0,0,.14-2,15.5,15.5,0,0,0-.14-2h3.375A8.005,8.005,0,0,1,22,14a7.78,7.78,0,0,1-.265,2Z" transform="translate(-3.8 -3.8)" fill="#b2b3c5" stroke="#b2b3c5" stroke-width="0.4"/>
</svg>
