<svg xmlns="http://www.w3.org/2000/svg" width="88.249" height="60" viewBox="0 0 88.249 60">
  <path id="Marketing" d="M14901.248-23070a3.748,3.748,0,0,1-3.75-3.75v-15a7.509,7.509,0,0,1-7.5-7.5v-11.25a7.509,7.509,0,0,1,7.5-7.5h16.021a30,30,0,0,0,21.211-8.789l5.109-5.121a3.733,3.733,0,0,1,4.086-.8,3.754,3.754,0,0,1,2.322,3.461v17.3c2.182,1.035,3.75,3.809,3.75,7.082s-1.568,6.047-3.75,7.07v17.289a3.765,3.765,0,0,1-2.322,3.469,3.729,3.729,0,0,1-4.086-.812l-5.109-5.109a30.049,30.049,0,0,0-21.211-8.789h-1.021v15a3.741,3.741,0,0,1-3.75,3.75Zm69.078-10.852-5.631-3.473-.289,1.707a1.748,1.748,0,0,1-.326.754,1.789,1.789,0,0,1-2.5.371l-7.709-5.687a1.793,1.793,0,0,1-.371-2.5,1.789,1.789,0,0,1,2.5-.371l5.363,3.969.244-1.461a1.8,1.8,0,0,1,2.066-1.453,1.618,1.618,0,0,1,.627.234l7.895,4.863a1.787,1.787,0,0,1,.592,2.449,1.765,1.765,0,0,1-1.521.855A1.832,1.832,0,0,1,14970.326-23080.852Zm-5.457-11.891-9.008-3.367v.012a1.791,1.791,0,0,1-1.057-2.3,1.791,1.791,0,0,1,2.287-1.059l6.744,2.52.152-3.074a1.793,1.793,0,0,1,1.881-1.684,1.7,1.7,0,0,1,.684.184l10.611,4.527a1.781,1.781,0,0,1,.941,2.336,1.786,1.786,0,0,1-2.334.938l-8.348-3.562-.15,2.926a1.78,1.78,0,0,1-.117.547,1.774,1.774,0,0,1-1.672,1.164A1.786,1.786,0,0,1,14964.869-23092.742Zm-.986-13.629-.268-3.055-6.641,2.742a1.783,1.783,0,0,1-2.322-.965,1.77,1.77,0,0,1,.953-2.324l8.893-3.68a1.789,1.789,0,0,1,2.334.965,1.631,1.631,0,0,1,.127.523l.256,2.938,8.221-3.844a1.78,1.78,0,0,1,2.367.859,1.779,1.779,0,0,1-.859,2.367l-10.4,4.875a1.907,1.907,0,0,1-.719.223c-.051,0-.1.008-.152.008A1.8,1.8,0,0,1,14963.883-23106.371Zm-10.844-9.961a1.785,1.785,0,0,1,.291-2.5l7.5-5.957a1.766,1.766,0,0,1,2.5.289,1.579,1.579,0,0,1,.348.746l.359,1.7,5.516-3.672a1.784,1.784,0,0,1,2.473.5,1.78,1.78,0,0,1-.5,2.473l-7.721,5.133a1.858,1.858,0,0,1-.627.254,1.774,1.774,0,0,1-2.1-1.379l-.291-1.453-5.236,4.156h-.012a1.777,1.777,0,0,1-1.105.383A1.765,1.765,0,0,1,14953.039-23116.332Z" transform="translate(-14889.998 23130)" fill="#0f1349"/>
</svg>
