<svg xmlns="http://www.w3.org/2000/svg" width="199" height="40" viewBox="0 0 199 40">
  <g id="OZ_Logo" data-name="OZ Logo" transform="translate(-45.09 -19.1)">
    <g id="Group_8404" data-name="Group 8404" transform="translate(45.09 19.1)">
      <path id="Path_35223" data-name="Path 35223" d="M99.457,33.258V29.051a5,5,0,0,0-2.469-4.315.147.147,0,0,1-.021-.013c-.032-.019-.064-.037-.1-.056s-.1-.053-.143-.077l-.352-.191c-.249-.135-.5-.265-.751-.394l-.228-.116c-.3-.151-.593-.3-.892-.437l-.333-.156c-.262-.122-.527-.241-.791-.36a45.1,45.1,0,0,0-36.407,0c-.265.116-.527.238-.791.36l-.32.151c-.159.074-.318.151-.474.228l-.273.135c-.108.056-.22.108-.328.164l-.288.151c-.037.016-.074.037-.108.056-.1.053-.206.108-.307.161l-.074.04-.384.206-.23.127a5,5,0,0,0-2.5,4.331v4.2a5.81,5.81,0,0,0,0,11.621v4.284a5,5,0,0,0,2.5,4.331.043.043,0,0,0,.019.011c.069.04.14.077.209.114a0,0,0,0,1,0,0l.384.206.074.04c.1.056.2.108.307.161.037.019.074.04.108.056l.288.151c.108.056.217.111.328.164l.273.135c.156.077.315.153.474.228l.32.151c.262.122.527.241.791.36a45.1,45.1,0,0,0,36.407,0c.265-.116.527-.238.791-.36l.333-.156c.3-.143.6-.288.892-.437.077-.037.151-.077.228-.116.251-.13.5-.259.751-.394l.352-.191a.009.009,0,0,0,.005,0c.045-.024.09-.048.135-.074s.066-.037.1-.056a.058.058,0,0,0,.021-.013,5,5,0,0,0,2.469-4.315V44.865a5.8,5.8,0,1,0,0-11.607ZM93.382,47.043a2.406,2.406,0,0,1-1.286,2.13h0c-.029.013-.058.029-.09.042l-.069.032c-.069.034-.14.069-.212.1-.7.333-1.421.643-2.146.934l-.032.013c-.1.04-.2.079-.3.116s-.225.087-.339.13l-.019.008c-.064.026-.13.05-.193.074l-.1.034c-.048.019-.1.037-.146.053l-.106.04-.138.048-.222.079c-.071.026-.143.05-.214.074s-.13.045-.2.066l-.156.053-.159.053-.111.037c-.119.04-.241.077-.36.114a.73.73,0,0,1-.071.021c-.09.029-.183.056-.275.085s-.19.056-.283.085c-.116.034-.233.069-.349.1l-.082.024-.016.005c-.143.04-.286.079-.429.116-.283.077-.569.151-.857.22a.01.01,0,0,0-.008,0c-.1.024-.19.048-.286.069l-.172.04c-.331.077-.661.148-.995.217-.09.019-.183.037-.273.053s-.156.029-.233.045l-.1.019c-.087.019-.177.034-.265.048l-.04.008-.407.071-.167.026c-.13.021-.257.042-.386.061a.094.094,0,0,0-.026.005l-.209.032-.2.029a.182.182,0,0,0-.034.005.2.2,0,0,1-.04.005l-.13.019-.127.019-.132.016c-.048.008-.1.013-.146.019l-.212.026-.063.008c-.106.013-.214.026-.32.037-.034.005-.069.008-.1.011-.111.013-.22.024-.333.034-.037.005-.074.008-.111.011a.513.513,0,0,1-.064.005c-.069.008-.135.013-.2.019-.042.005-.087.008-.132.011l-.082.008c-.13.011-.259.021-.392.029l-.1.008a.432.432,0,0,0-.058.005c-.069.005-.138.011-.206.013a.649.649,0,0,0-.071.005l-.116.008c-.04,0-.079.005-.119.005l-.124.008c-.042,0-.087.005-.13.005l-.463.021c-.156.005-.312.011-.468.013l-.36.008c-.214.005-.429.005-.646.005s-.431,0-.646-.005c-.119,0-.238-.005-.36-.008-.156,0-.312-.008-.468-.013s-.312-.013-.466-.021-.325-.016-.487-.026a.6.6,0,0,1-.066-.005l-.212-.013a.432.432,0,0,1-.058-.005l-.1-.008c-.132-.008-.262-.019-.392-.029l-.082-.008c-.042-.005-.087-.008-.132-.011-.069-.005-.138-.011-.2-.019a.514.514,0,0,0-.063-.005l-.111-.011c-.037-.005-.077-.008-.114-.011l-.209-.021-.124-.013c-.1-.011-.2-.021-.3-.034-.048-.005-.1-.011-.143-.019l-.143-.019c-.048-.005-.093-.011-.138-.019-.14-.016-.28-.037-.423-.056-.082-.011-.161-.021-.241-.034s-.161-.024-.241-.037c-.132-.019-.262-.04-.394-.061L68.7,52.5l-.407-.071-.04-.008-.265-.048-.1-.019-.225-.042c-.1-.019-.193-.037-.291-.058L67,52.179c-.053-.011-.1-.021-.156-.034a.248.248,0,0,1-.042-.011c-.193-.042-.384-.087-.577-.132-.1-.021-.191-.045-.286-.069l-.286-.071-.278-.071-.3-.079-.032-.008c-.135-.034-.273-.074-.4-.111s-.291-.082-.437-.124c-.1-.026-.19-.056-.283-.085s-.177-.053-.265-.082l-.021-.008c-.124-.04-.251-.077-.376-.119-.061-.019-.119-.04-.177-.058l-.135-.042-.021-.008-.138-.048c-.066-.021-.13-.042-.2-.066l-.108-.037c-.079-.026-.156-.056-.235-.082-.032-.011-.064-.021-.1-.034l-.138-.048-.087-.032-.164-.061-.122-.042-.185-.071-.169-.064c-.127-.048-.254-.1-.381-.148-.029-.011-.058-.021-.087-.034l-.032-.013c-.1-.04-.206-.082-.312-.124-.183-.074-.362-.148-.54-.225l-.352-.151c-.143-.063-.286-.124-.426-.191-.069-.032-.138-.061-.2-.093s-.135-.061-.2-.1c-.1-.048-.2-.093-.3-.143l-.034-.016-.056-.026-.037-.019c-.026-.013-.053-.026-.079-.042s-.071-.04-.106-.061-.061-.04-.093-.061l-.087-.061c-.034-.026-.069-.053-.1-.082a.918.918,0,0,1-.077-.066s-.005-.005-.008-.005c-.026-.026-.056-.053-.082-.077s-.053-.056-.079-.085-.05-.056-.074-.087-.061-.074-.087-.111-.034-.048-.053-.074-.034-.053-.05-.077a.391.391,0,0,1-.021-.034.559.559,0,0,1-.048-.087c-.013-.026-.026-.053-.04-.077-.021-.042-.042-.087-.061-.132s-.032-.077-.045-.116-.024-.069-.034-.106-.021-.074-.032-.114-.019-.069-.024-.1a.375.375,0,0,1-.011-.053c0-.016-.005-.034-.008-.053l-.008-.053c-.005-.037-.008-.074-.013-.111s-.005-.056-.005-.085c0-.013,0-.026,0-.04,0-.034,0-.071,0-.106V31.173c0-.034,0-.071,0-.106a.2.2,0,0,1,0-.04c0-.029,0-.056.005-.085s.008-.074.013-.111l.008-.053c0-.016.005-.034.008-.053a.374.374,0,0,1,.011-.053l.024-.1c.011-.04.021-.077.032-.114s.021-.071.034-.106.029-.077.045-.116.04-.09.061-.132c.013-.026.026-.053.04-.077l.048-.087a.391.391,0,0,1,.021-.034c.016-.026.034-.053.05-.077s.034-.048.053-.074a.9.9,0,0,1,.087-.111c.024-.029.05-.058.074-.087l.079-.085c.026-.026.053-.053.082-.077,0,0,.005-.005.008-.005a.918.918,0,0,1,.077-.066c.034-.029.069-.056.1-.082s.058-.042.087-.061.061-.04.093-.061.069-.042.106-.061l.079-.042L58.359,29l.09-.042.3-.143.2-.1.2-.093.426-.19c.116-.053.235-.1.352-.151.18-.077.36-.151.54-.225.1-.042.206-.085.312-.124.04-.016.077-.032.116-.045.063-.026.127-.05.19-.074s.127-.05.191-.074l.355-.135.122-.042.164-.061.087-.032c.048-.016.093-.034.138-.048l.093-.032.238-.085c.034-.013.071-.024.108-.037.063-.024.13-.045.2-.066l.138-.048.021-.008.135-.042c.058-.021.119-.04.177-.058l.376-.119c.333-.1.669-.2,1.005-.3.135-.04.273-.077.4-.111.111-.029.222-.061.336-.09l.278-.071.286-.071c.1-.024.191-.048.286-.069.193-.045.384-.09.577-.132l.2-.042.381-.079c.1-.021.193-.04.291-.058s.214-.042.32-.061l.265-.048c.333-.061.667-.116,1-.167.079-.013.161-.024.241-.037.22-.032.442-.064.664-.09.1-.013.188-.024.283-.034q.389-.048.778-.087c.037,0,.077-.005.114-.011s.074-.008.111-.011l.267-.024c.071-.008.143-.013.214-.019.183-.016.365-.029.548-.042.069-.005.14-.011.212-.013l.066-.005c.161-.011.323-.019.487-.026.429-.021.86-.034,1.294-.042.214-.005.429-.005.646-.005s.431,0,.646.005c.476.008.947.024,1.418.048l.124.008c.04,0,.079,0,.119.005l.191.011.206.013c.183.013.368.026.548.042.071.005.143.011.214.019l.267.024.111.011c.111.011.222.021.333.034.164.016.325.034.487.056.071.008.14.016.212.026l.146.019.132.016.127.016c.042.005.087.013.132.019a.1.1,0,0,1,.029.005.01.01,0,0,1,.008,0c.011,0,.021,0,.034.005.069.008.135.019.2.029l.209.032c.344.053.688.108,1.029.169l.265.048.328.064c.09.016.183.034.273.053.392.079.781.164,1.167.257.1.021.191.045.286.069q.651.159,1.294.339c.034.008.066.019.1.026q.81.23,1.609.495c.053.019.106.034.156.053.138.045.275.093.41.14l.362.127.106.04c.048.019.1.034.146.053.032.011.064.021.1.034.064.024.13.048.193.074q1.445.544,2.834,1.2c.071.032.143.066.212.1l.069.032.09.042h0a2.409,2.409,0,0,1,1.286,2.13V47.043Z" transform="translate(-45.09 -19.1)" fill="#1bfcb6"/>
      <path id="Path_35224" data-name="Path 35224" d="M117.69,66.72v3.717h13.631l-13.065,7.382-.566.32v3.4h21.76V77.819H125.815l13.065-7.382.569-.323V66.72H117.69Z" transform="translate(-98.481 -54.12)" fill="#1bfcb6"/>
    </g>
    <g id="Group_8413" data-name="Group 8413" transform="translate(118.357 26.037)">
      <g id="Group_8405" data-name="Group 8405" transform="translate(0 5.263)">
        <path id="Path_35225" data-name="Path 35225" d="M340.973,67.53l-.008-.005-.04-.024-.058-.032-.146-.079c-.1-.056-.206-.108-.31-.161l-.093-.048c-.122-.061-.243-.122-.368-.18l-.138-.063c-.108-.05-.217-.1-.325-.148a18.556,18.556,0,0,0-14.984,0c-.108.048-.217.1-.325.148-.045.021-.087.042-.132.061l-.2.1-.114.056-.135.069-.119.061-.045.024-.127.066-.032.016-.159.085c-.032.016-.063.034-.1.053A2.06,2.06,0,0,0,322,69.306v8.276a2.06,2.06,0,0,0,1.027,1.783l.008.005.087.048h0c.053.029.106.058.159.085l.032.016c.042.024.085.045.127.066l.045.024c.04.021.079.042.119.061l.135.069.114.056.2.1c.045.021.087.042.132.061.108.05.217.1.325.148a18.556,18.556,0,0,0,14.984,0c.108-.048.217-.1.325-.148l.138-.063c.122-.058.246-.119.368-.18l.093-.048c.1-.053.206-.106.31-.161l.146-.079h0a.567.567,0,0,1,.056-.029l.04-.024s.005,0,.008-.005a2.055,2.055,0,0,0,1.016-1.775V69.308A2.069,2.069,0,0,0,340.973,67.53ZM337.9,76.018a.782.782,0,0,1-.415.691h0a.142.142,0,0,1-.029.013.158.158,0,0,0-.021.011l-.069.032c-.228.108-.46.209-.7.3l-.011,0c-.032.013-.063.026-.1.037s-.074.029-.108.042a.009.009,0,0,0-.005,0l-.063.024-.032.011a.356.356,0,0,0-.048.019c-.011.005-.024.008-.034.013l-.045.016-.071.026-.069.024a.588.588,0,0,1-.063.021l-.05.016-.05.016a.152.152,0,0,1-.037.011l-.116.037-.024.008c-.029.008-.058.019-.09.026s-.061.019-.093.026l-.114.032-.026.008h-.005c-.045.013-.093.026-.138.037l-.278.071h0c-.032.008-.061.016-.093.021l-.056.013c-.106.024-.214.048-.323.069-.029.005-.058.011-.087.019l-.077.016-.032.005-.085.016c-.005,0-.008,0-.013,0l-.132.024-.053.008c-.042.008-.085.013-.124.019h-.008c-.024,0-.045.008-.069.011a.568.568,0,0,0-.066.011h-.011c-.005,0-.008,0-.013,0l-.042.005-.042.005-.042.005a.292.292,0,0,1-.048.005l-.069.008-.021,0c-.034.005-.069.008-.1.011-.011,0-.021,0-.034,0l-.108.011-.037,0a.058.058,0,0,0-.021,0,.559.559,0,0,1-.066.005l-.042,0-.026,0-.127.011-.032,0h-.018l-.066.005h-.024l-.037,0-.04,0-.04,0a.227.227,0,0,0-.042,0c-.05,0-.1.005-.151.005l-.151.005-.116,0-.209,0c-.069,0-.14,0-.209,0-.04,0-.077,0-.116,0s-.1,0-.151-.005l-.151-.005-.159-.008h-.021a.6.6,0,0,1-.069-.005h-.019a.129.129,0,0,1-.032,0c-.042,0-.085-.005-.127-.011a.09.09,0,0,1-.026,0l-.042,0-.066-.005a.058.058,0,0,1-.021,0l-.037,0-.037,0-.069-.008a.2.2,0,0,1-.04-.005c-.032,0-.064-.008-.1-.011l-.048-.005-.048-.005-.045-.005c-.045-.005-.09-.011-.138-.019l-.079-.011-.079-.011c-.042-.005-.085-.013-.127-.021l-.053-.008-.132-.024c-.005,0-.008,0-.013,0l-.085-.016-.032-.005c-.024-.005-.048-.008-.074-.013l-.1-.019c-.042-.008-.082-.016-.124-.026l-.05-.011a.111.111,0,0,1-.013,0c-.064-.013-.124-.029-.188-.042L329,77.593l-.093-.024-.09-.024c-.032-.008-.066-.016-.1-.026l-.011,0c-.045-.011-.087-.024-.132-.037l-.14-.04c-.032-.008-.061-.019-.093-.026s-.058-.019-.085-.026l-.008,0-.122-.04-.058-.019c-.013-.005-.029-.008-.042-.013l-.008,0-.045-.016-.063-.021-.034-.011c-.026-.008-.05-.019-.077-.026l-.032-.011-.045-.016c-.011,0-.019-.008-.029-.011s-.034-.013-.053-.019a.233.233,0,0,0-.04-.013l-.061-.024-.056-.021-.124-.048c-.008,0-.019-.008-.029-.011l-.011,0-.1-.04c-.058-.024-.116-.048-.175-.074-.037-.016-.077-.032-.114-.05s-.093-.04-.138-.061a.719.719,0,0,0-.066-.029l-.066-.032c-.032-.016-.066-.029-.1-.045,0,0-.008,0-.011-.005l-.018-.008-.011-.005c-.008-.005-.018-.008-.026-.013l-.034-.019a.28.28,0,0,1-.029-.019.2.2,0,0,1-.029-.021l-.034-.026-.024-.021a0,0,0,0,1,0,0,.249.249,0,0,1-.026-.026l-.026-.026a.281.281,0,0,1-.024-.029.453.453,0,0,1-.029-.037l-.016-.024a.233.233,0,0,1-.016-.026l-.008-.011a.288.288,0,0,1-.016-.029.246.246,0,0,1-.013-.026.29.29,0,0,1-.019-.042l-.016-.037a.168.168,0,0,1-.011-.034c0-.013-.008-.024-.011-.037s-.005-.024-.008-.034,0-.011,0-.016,0-.011,0-.016,0-.011,0-.016,0-.024-.005-.037,0-.019,0-.026V70.825a.091.091,0,0,1,0-.026.18.18,0,0,1,.005-.037c0-.005,0-.011,0-.016s0-.011,0-.016,0-.011,0-.016.005-.024.008-.034a.2.2,0,0,1,.011-.037c0-.011.008-.024.011-.034s.011-.026.016-.037.013-.029.019-.042a.246.246,0,0,0,.013-.026l.016-.029.008-.011a.232.232,0,0,0,.016-.026l.016-.024a.358.358,0,0,1,.029-.037l.024-.029a.126.126,0,0,1,.026-.026.249.249,0,0,0,.026-.026,0,0,0,0,0,0,0l.024-.021a.384.384,0,0,1,.034-.026l.029-.021c.011-.005.018-.013.029-.019a.219.219,0,0,1,.034-.019.249.249,0,0,1,.026-.013l.011-.005.029-.013c.032-.016.063-.032.1-.045l.066-.032a.717.717,0,0,1,.066-.029c.045-.021.093-.042.138-.061l.114-.05.175-.074.1-.04.037-.016.061-.024.061-.024.116-.045a.234.234,0,0,1,.04-.013c.019-.005.034-.013.053-.019a.128.128,0,0,0,.029-.011l.045-.016c.011,0,.021-.008.029-.011.026-.008.05-.019.077-.026l.034-.011a.6.6,0,0,1,.064-.021l.045-.016a.01.01,0,0,0,.008,0c.013-.005.029-.008.042-.013l.058-.019.122-.04q.163-.052.326-.1l.132-.037.108-.029.09-.024.093-.024c.032-.008.061-.016.093-.021.063-.016.124-.029.188-.042l.064-.013c.042-.008.082-.019.124-.026l.1-.019.1-.021.085-.016c.108-.019.217-.037.325-.053l.079-.011c.071-.011.143-.021.214-.029l.093-.011L330.7,69l.037,0,.037,0,.087-.008a.6.6,0,0,1,.069-.005c.058-.005.119-.011.177-.013l.069-.005h.021l.159-.008c.14-.008.278-.011.421-.013l.209,0c.069,0,.14,0,.209,0q.23,0,.46.016l.04,0a.2.2,0,0,1,.04,0l.061,0a.557.557,0,0,1,.066.005c.058,0,.119.008.177.013.024,0,.048,0,.069.005l.087.008.037,0,.109.011c.053.005.106.011.159.019l.069.008.048.005c.013,0,.029,0,.042.005s.026,0,.042.005l.042.005h.024a.57.57,0,0,1,.066.011.616.616,0,0,1,.069.011q.167.024.333.056l.085.016c.034.005.071.013.106.021s.058.011.087.019c.127.026.254.053.378.082.032.008.061.016.093.021.14.034.28.071.418.111l.032.008c.175.05.349.1.521.161l.05.016c.045.016.09.029.132.045s.079.026.116.042c.011.005.024.008.034.013a.351.351,0,0,1,.048.019l.032.011.063.024c.312.116.619.246.918.389l.069.032a.159.159,0,0,1,.021.011.141.141,0,0,0,.029.013h0a.78.78,0,0,1,.415.691v5.144Z" transform="translate(-322 -65.21)" fill="#0f1349"/>
      </g>
      <g id="Group_8407" data-name="Group 8407" transform="translate(89.922 0)">
        <g id="Group_8406" data-name="Group 8406">
          <path id="Path_35226" data-name="Path 35226" d="M670.573,82.757l-.251-1.453h-.087a4.8,4.8,0,0,1-3.9,1.757,4.332,4.332,0,0,1-4.474-4.474c0-3.829,3.405-5.564,8.027-5.57V72.79c0-.892-.495-1.926-2.5-1.921a7.506,7.506,0,0,0-3.72,1.021l-.8-2.834a11.2,11.2,0,0,1,5.353-1.257c4.749,0,6.048,2.955,6.048,6.255v5.212a21.229,21.229,0,0,0,.228,3.49Zm-.556-6.99c-2.066,0-3.905.534-3.905,2.368a1.632,1.632,0,0,0,1.691,1.823,2.235,2.235,0,0,0,2.13-1.556,2.711,2.711,0,0,0,.085-.746Z" transform="translate(-661.86 -61.852)" fill="#0f1349"/>
          <path id="Path_35227" data-name="Path 35227" d="M728.082,70,732.826,64h-5.1l-2.646,4.416c-.323.561-.638,1.159-.963,1.847h-.058V62.22H719.7V78.656h4.36v-4.62l1.011-1.4,3.1,6.019h5.231Z" transform="translate(-704.396 -57.748)" fill="#0f1349"/>
          <path id="Path_35228" data-name="Path 35228" d="M784.495,47.561a2.18,2.18,0,0,1-2.331,2.23,2.237,2.237,0,1,1,2.331-2.23Zm-4.464,18.664V51.57H784.4V66.225Z" transform="translate(-748.683 -45.32)" fill="#0f1349"/>
        </g>
      </g>
      <g id="Group_8408" data-name="Group 8408" transform="translate(21.765 5.948)">
        <path id="Path_35229" data-name="Path 35229" d="M408.97,68.94l1.715,6.736c.312,1.254.55,2.458.77,3.723h.087c.209-1.294.445-2.429.741-3.723l1.654-6.736h4.514l-5,14.655h-4.26L404.26,68.94Z" transform="translate(-404.26 -68.638)" fill="#0f1349"/>
        <path id="Path_35230" data-name="Path 35230" d="M463.948,76.875c.109,2.008,1.812,2.892,3.823,2.892a11.059,11.059,0,0,0,3.662-.585l.585,3a13.373,13.373,0,0,1-4.921.849c-4.673,0-7.326-2.813-7.326-7.385,0-4.085,2.4-7.848,6.93-7.848,4.27,0,6.078,3.331,6.078,7.2a9.483,9.483,0,0,1-.151,1.876Zm4.789-3.008c.011-1.334-.484-3.085-2.283-3.085-1.73,0-2.432,1.794-2.529,3.085Z" transform="translate(-445.083 -67.8)" fill="#0f1349"/>
        <path id="Path_35231" data-name="Path 35231" d="M519.369,72.809c0-1.942-.048-3.411-.119-4.7h3.76l.177,2.543h.111a4.022,4.022,0,0,1,3.641-2.847,3.867,3.867,0,0,1,.931.082v4.165a5.322,5.322,0,0,0-1.119-.1,2.821,2.821,0,0,0-2.9,2.244,5.391,5.391,0,0,0-.111,1.148v7.422h-4.374Z" transform="translate(-488.825 -67.8)" fill="#0f1349"/>
      </g>
      <g id="Group_8412" data-name="Group 8412" transform="translate(69.494 6.091)">
        <g id="Group_8409" data-name="Group 8409">
          <rect id="Rectangle_19634" data-name="Rectangle 19634" width="17.531" height="3.717" fill="#0f1349"/>
        </g>
        <g id="Group_8410" data-name="Group 8410" transform="translate(0 0.325)">
          <path id="Path_35232" data-name="Path 35232" d="M602.181,69.57v4.273l-11.509,6.5-6.022,3.4V79.473l11.525-6.511Z" transform="translate(-584.65 -69.57)" fill="#0f1349"/>
        </g>
        <g id="Group_8411" data-name="Group 8411" transform="translate(0 11.099)">
          <rect id="Rectangle_19635" data-name="Rectangle 19635" width="17.531" height="3.717" fill="#0f1349"/>
        </g>
      </g>
    </g>
  </g>
</svg>
