<svg xmlns="http://www.w3.org/2000/svg" width="282" height="60" viewBox="0 0 282 60">
  <g id="Voice" transform="translate(-82 -570.338)" opacity="0.3">
    <rect id="Rectangle_18682" data-name="Rectangle 18682" width="6" height="60" rx="3" transform="translate(226 570.338)" fill="#1bfcb6"/>
    <rect id="Rectangle_18691" data-name="Rectangle 18691" width="6" height="21" rx="3" transform="translate(298 589.338)" fill="#1bfcb6"/>
    <rect id="Rectangle_18712" data-name="Rectangle 18712" width="6" height="11" rx="3" transform="translate(82 594.338)" fill="#1bfcb6"/>
    <rect id="Rectangle_18697" data-name="Rectangle 18697" width="6" height="41" rx="3" transform="translate(154 579.338)" fill="#1bfcb6"/>
    <rect id="Rectangle_18686" data-name="Rectangle 18686" width="6" height="21" rx="3" transform="translate(262 589.338)" fill="#1bfcb6"/>
    <rect id="Rectangle_18690" data-name="Rectangle 18690" width="6" height="60" rx="3" transform="translate(334 570.338)" fill="#1bfcb6"/>
    <rect id="Rectangle_18715" data-name="Rectangle 18715" width="6" height="41" rx="3" transform="translate(118 579.338)" fill="#1bfcb6"/>
    <rect id="Rectangle_18696" data-name="Rectangle 18696" width="6" height="11" rx="3" transform="translate(190 594.338)" fill="#1bfcb6"/>
    <rect id="Rectangle_18683" data-name="Rectangle 18683" width="6" height="51" rx="3" transform="translate(238 574.338)" fill="#1bfcb6"/>
    <rect id="Rectangle_18692" data-name="Rectangle 18692" width="6" height="60" rx="3" transform="translate(310 570.338)" fill="#1bfcb6"/>
    <rect id="Rectangle_18713" data-name="Rectangle 18713" width="6" height="30" rx="3" transform="translate(94 585.338)" fill="#1bfcb6"/>
    <rect id="Rectangle_18698" data-name="Rectangle 18698" width="6" height="41" rx="3" transform="translate(166 579.338)" fill="#1bfcb6"/>
    <rect id="Rectangle_18687" data-name="Rectangle 18687" width="6" height="41" rx="3" transform="translate(274 579.338)" fill="#1bfcb6"/>
    <rect id="Rectangle_18688" data-name="Rectangle 18688" width="6" height="11" rx="3" transform="translate(346 594.338)" fill="#1bfcb6"/>
    <rect id="Rectangle_18716" data-name="Rectangle 18716" width="6" height="31" rx="3" transform="translate(130 584.338)" fill="#1bfcb6"/>
    <rect id="Rectangle_18694" data-name="Rectangle 18694" width="6" height="41" rx="3" transform="translate(202 579.338)" fill="#1bfcb6"/>
    <rect id="Rectangle_18684" data-name="Rectangle 18684" width="6" height="41" rx="3" transform="translate(250 579.338)" fill="#1bfcb6"/>
    <rect id="Rectangle_18693" data-name="Rectangle 18693" width="6" height="41" rx="3" transform="translate(322 579.338)" fill="#1bfcb6"/>
    <rect id="Rectangle_18714" data-name="Rectangle 18714" width="6" height="41" rx="3" transform="translate(106 579.338)" fill="#1bfcb6"/>
    <rect id="Rectangle_18699" data-name="Rectangle 18699" width="6" height="31" rx="3" transform="translate(178 584.338)" fill="#1bfcb6"/>
    <rect id="Rectangle_18685" data-name="Rectangle 18685" width="6" height="41" rx="3" transform="translate(286 579.338)" fill="#1bfcb6"/>
    <rect id="Rectangle_18689" data-name="Rectangle 18689" width="6" height="41" rx="3" transform="translate(358 579.338)" fill="#1bfcb6"/>
    <rect id="Rectangle_18717" data-name="Rectangle 18717" width="6" height="21" rx="3" transform="translate(142 589.338)" fill="#1bfcb6"/>
    <rect id="Rectangle_18695" data-name="Rectangle 18695" width="6" height="21" rx="3" transform="translate(214 589.338)" fill="#1bfcb6"/>
  </g>
</svg>
