<svg xmlns="http://www.w3.org/2000/svg" width="25.712" height="20" viewBox="0 0 25.712 20">
  <path id="volume-xmark-solid" d="M13.442,32.143a1.431,1.431,0,0,1,.844,1.3V50.589a1.429,1.429,0,0,1-2.379,1.067L5.884,46.3H2.857A2.86,2.86,0,0,1,0,43.447V40.59a2.86,2.86,0,0,1,2.857-2.857H5.884l6.022-5.353A1.434,1.434,0,0,1,13.442,32.143Zm5.531,5.9L21.428,40.5l2.455-2.455A1.07,1.07,0,1,1,25.4,39.558l-2.455,2.455L25.4,44.469a1.07,1.07,0,1,1-1.513,1.513l-2.455-2.455-2.455,2.455a1.07,1.07,0,1,1-1.513-1.513l2.455-2.455L17.46,39.558a1.07,1.07,0,0,1,1.513-1.513Z" transform="translate(0 -32.019)" fill="#0f1349"/>
</svg>
