<svg xmlns="http://www.w3.org/2000/svg" width="27.957" height="20" viewBox="0 0 27.957 20">
  <path id="volume-high-solid" d="M23.309,27.287a12.578,12.578,0,0,1,0,19.526,1.05,1.05,0,1,1-1.324-1.629,10.479,10.479,0,0,0,0-16.272,1.05,1.05,0,0,1,1.324-1.629Zm-2.643,3.254a8.388,8.388,0,0,1,0,13.018,1.05,1.05,0,0,1-1.324-1.629,6.289,6.289,0,0,0,0-9.763,1.05,1.05,0,1,1,1.324-1.629ZM18.024,33.8a4.2,4.2,0,0,1,0,6.509A1.05,1.05,0,0,1,16.7,38.676a2.1,2.1,0,0,0,0-3.254,1.05,1.05,0,0,1,1.324-1.629Zm-4.871-6.408a1.4,1.4,0,0,1,.826,1.276V45.438a1.4,1.4,0,0,1-2.328,1.044L5.757,41.244H2.8a2.8,2.8,0,0,1-2.8-2.8v-2.8a2.8,2.8,0,0,1,2.8-2.8H5.757l5.893-5.238A1.4,1.4,0,0,1,13.153,27.388Z" transform="translate(0 -27.049)" fill="#0f1349"/>
</svg>
